# Blender 4.1.1
# www.blender.org
mtllib Player.mtl
o å††éŒ.003
v 0.300000 -0.406218 -1.696410
v 0.300000 -0.806218 -1.003590
v 0.300000 0.806218 -0.996410
v -0.300000 -0.406218 -1.696410
v -0.300000 -0.806218 -1.003590
v -0.300000 0.806218 -0.996410
v -0.300000 0.406218 -0.303590
v 0.300000 0.406218 -0.303590
v 0.000000 1.000000 1.700000
v -0.331654 1.000000 1.667335
v -0.650562 1.000000 1.570595
v -0.944469 1.000000 1.413498
v -1.202082 1.000000 1.202082
v -1.413498 1.000000 0.944469
v -1.570595 1.000000 0.650562
v -1.667335 1.000000 0.331654
v -1.700000 1.000000 0.000000
v -1.667335 1.000000 -0.331654
v -1.570595 1.000000 -0.650562
v -1.413498 1.000000 -0.944469
v -1.202082 1.000000 -1.202082
v -0.944469 1.000000 -1.413498
v -0.650562 1.000000 -1.570595
v -0.331654 1.000000 -1.667335
v 0.000000 1.000000 -1.700000
v 0.331654 1.000000 -1.667335
v 0.650562 1.000000 -1.570595
v 0.944469 1.000000 -1.413498
v 1.202082 1.000000 -1.202082
v 1.413498 1.000000 -0.944469
v 1.570595 1.000000 -0.650562
v 1.667335 1.000000 -0.331654
v 1.700000 1.000000 0.000000
v 1.667335 1.000000 0.331654
v 1.570595 1.000000 0.650562
v 1.413498 1.000000 0.944469
v 1.202082 1.000000 1.202082
v 0.944469 1.000000 1.413498
v 0.650562 1.000000 1.570595
v 0.331654 1.000000 1.667335
v 0.000000 2.000000 0.000000
v -1.000000 1.000000 1.000000
v -1.000000 -1.000000 1.000000
v -1.000000 1.000000 -1.000000
v 1.000000 1.000000 1.000000
v 1.000000 -1.000000 1.000000
v 1.000000 1.000000 -1.000000
v 1.000000 -1.000000 -1.000000
v -1.000000 -1.000000 -1.000000
v -1.000000 0.000000 0.300000
v -1.000000 -0.058527 0.294236
v -1.600000 -0.000000 0.300000
v -1.000000 0.058527 0.294236
v -1.000000 0.114805 0.277164
v -1.600000 0.058527 0.294236
v -1.600000 0.114805 0.277164
v -1.600000 0.166671 0.249441
v -1.600000 0.212132 0.212132
v -1.000000 0.166671 0.249441
v -1.000000 0.212132 0.212132
v -1.000000 0.249441 0.166671
v -1.000000 0.277164 0.114805
v -1.600000 0.249441 0.166671
v -1.600000 0.277164 0.114805
v -1.600000 0.294236 0.058527
v -1.600000 0.300000 0.000000
v -1.000000 0.294236 0.058527
v -1.000000 0.300000 0.000000
v -1.000000 0.294236 -0.058527
v -1.000000 0.277164 -0.114805
v -1.600000 0.294236 -0.058527
v -1.600000 0.277164 -0.114805
v -1.600000 0.249441 -0.166671
v -1.600000 0.212132 -0.212132
v -1.000000 0.249441 -0.166671
v -1.000000 0.212132 -0.212132
v -1.000000 0.166671 -0.249441
v -1.000000 0.114805 -0.277164
v -1.600000 0.166671 -0.249441
v -1.600000 0.114805 -0.277164
v -1.600000 0.058527 -0.294236
v -1.600000 -0.000000 -0.300000
v -1.000000 0.058527 -0.294236
v -1.000000 0.000000 -0.300000
v -1.000000 -0.058527 -0.294236
v -1.000000 -0.114805 -0.277164
v -1.600000 -0.058527 -0.294236
v -1.600000 -0.114805 -0.277164
v -1.600000 -0.166671 -0.249441
v -1.600000 -0.212132 -0.212132
v -1.000000 -0.166671 -0.249441
v -1.000000 -0.212132 -0.212132
v -1.000000 -0.249441 -0.166671
v -1.000000 -0.277164 -0.114805
v -1.600000 -0.249441 -0.166671
v -1.600000 -0.277164 -0.114805
v -1.600000 -0.294236 -0.058527
v -1.600000 -0.300000 0.000000
v -1.000000 -0.294236 -0.058527
v -1.000000 -0.300000 0.000000
v -1.000000 -0.294236 0.058527
v -1.000000 -0.277164 0.114805
v -1.600000 -0.294236 0.058527
v -1.600000 -0.277164 0.114805
v -1.600000 -0.249441 0.166671
v -1.600000 -0.212132 0.212132
v -1.000000 -0.249441 0.166671
v -1.000000 -0.212132 0.212132
v -1.000000 -0.166671 0.249441
v -1.000000 -0.114805 0.277164
v -1.600000 -0.166671 0.249441
v -1.600000 -0.114805 0.277164
v -1.600000 -0.058527 0.294236
v 0.300000 -0.806218 1.003590
v 0.300000 -0.406218 1.696410
v 0.300000 0.406218 0.303590
v -0.300000 -0.806218 1.003590
v -0.300000 -0.406218 1.696410
v -0.300000 0.406218 0.303590
v -0.300000 0.806218 0.996410
v 0.300000 0.806218 0.996410
vn -0.0000 -0.8660 -0.5000
vn 1.0000 -0.0000 -0.0000
vn -0.0000 0.5000 -0.8660
vn -1.0000 -0.0000 -0.0000
vn -0.0000 0.8660 0.5000
vn -0.0000 -0.5000 0.8660
vn -0.0499 0.8609 0.5064
vn -0.1477 0.8609 0.4869
vn -0.2399 0.8609 0.4488
vn -0.3228 0.8609 0.3933
vn -0.3933 0.8609 0.3228
vn -0.4488 0.8609 0.2399
vn -0.4869 0.8609 0.1477
vn -0.5064 0.8609 0.0499
vn -0.5064 0.8609 -0.0499
vn -0.4869 0.8609 -0.1477
vn -0.4488 0.8609 -0.2399
vn -0.3933 0.8609 -0.3228
vn -0.3228 0.8609 -0.3933
vn -0.2399 0.8609 -0.4488
vn -0.1477 0.8609 -0.4869
vn -0.0499 0.8609 -0.5064
vn 0.0499 0.8609 -0.5064
vn 0.1477 0.8609 -0.4869
vn 0.2399 0.8609 -0.4488
vn 0.3228 0.8609 -0.3933
vn 0.3933 0.8609 -0.3228
vn 0.4488 0.8609 -0.2399
vn 0.4869 0.8609 -0.1477
vn 0.5064 0.8609 -0.0499
vn 0.5064 0.8609 0.0499
vn 0.4869 0.8609 0.1477
vn 0.4488 0.8609 0.2399
vn 0.3933 0.8609 0.3228
vn 0.3228 0.8609 0.3933
vn 0.2399 0.8609 0.4488
vn -0.0000 -1.0000 -0.0000
vn 0.1477 0.8609 0.4869
vn 0.0499 0.8609 0.5064
vn -0.0000 -0.0000 1.0000
vn -0.0000 1.0000 -0.0000
vn -0.0000 -0.0000 -1.0000
vn -0.0000 -0.0980 0.9952
vn -0.0000 0.0980 0.9952
vn -0.0000 0.2903 0.9569
vn -0.0000 0.4714 0.8819
vn -0.0000 0.6344 0.7730
vn -0.0000 0.7730 0.6344
vn -0.0000 0.8819 0.4714
vn -0.0000 0.9569 0.2903
vn -0.0000 0.9952 0.0980
vn -0.0000 0.9952 -0.0980
vn -0.0000 0.9569 -0.2903
vn -0.0000 0.8819 -0.4714
vn -0.0000 0.7730 -0.6344
vn -0.0000 0.6344 -0.7730
vn -0.0000 0.4714 -0.8819
vn -0.0000 0.2903 -0.9569
vn -0.0000 0.0980 -0.9952
vn -0.0000 -0.0980 -0.9952
vn -0.0000 -0.2903 -0.9569
vn -0.0000 -0.4714 -0.8819
vn -0.0000 -0.6344 -0.7730
vn -0.0000 -0.7730 -0.6344
vn -0.0000 -0.8819 -0.4714
vn -0.0000 -0.9569 -0.2903
vn -0.0000 -0.9952 -0.0980
vn -0.0000 -0.9952 0.0980
vn -0.0000 -0.9569 0.2903
vn -0.0000 -0.8819 0.4714
vn -0.0000 -0.7730 0.6344
vn -0.0000 -0.6344 0.7730
vn -0.0000 -0.4714 0.8819
vn -0.0000 -0.2903 0.9569
vn -0.0000 -0.8660 0.5000
vn -0.0000 -0.5000 -0.8660
vn -0.0000 0.8660 -0.5000
vn -0.0000 0.5000 0.8660
vt 0.721657 0.772393
vt 0.667531 0.844561
vt 0.667531 0.772393
vt 0.847952 0.646098
vt 0.721658 0.718266
vt 0.721657 0.646098
vt 0.847952 0.844561
vt 0.721658 0.898688
vt 0.721658 0.844561
vt 0.902079 0.772393
vt 0.847952 0.772393
vt 0.847952 0.718266
vt 0.607526 0.714324
vt 0.559545 0.556154
vt 0.637461 0.701925
vt 0.664403 0.683923
vt 0.687314 0.661011
vt 0.705316 0.634070
vt 0.717716 0.604135
vt 0.724037 0.572355
vt 0.724037 0.539953
vt 0.717716 0.508174
vt 0.705316 0.478238
vt 0.687314 0.451297
vt 0.664403 0.428385
vt 0.637461 0.410383
vt 0.607526 0.397984
vt 0.575746 0.391662
vt 0.543344 0.391662
vt 0.511565 0.397984
vt 0.481629 0.410383
vt 0.454688 0.428385
vt 0.431776 0.451297
vt 0.413775 0.478238
vt 0.401375 0.508174
vt 0.395054 0.539953
vt 0.395054 0.572355
vt 0.401375 0.604134
vt 0.413775 0.634070
vt 0.431776 0.661011
vt 0.454688 0.683923
vt 0.481629 0.701925
vt 0.511565 0.714324
vt 0.543344 0.720646
vt 0.651732 0.377713
vt 0.588775 0.170171
vt 0.796317 0.107214
vt 0.575746 0.720646
vt 0.190239 0.552094
vt 0.370661 0.371672
vt 0.370661 0.552094
vt 0.190239 0.371672
vt 0.370661 0.191251
vt 0.009818 0.371672
vt 0.190239 0.191251
vt 0.190239 0.732515
vt 0.370661 0.732515
vt 0.370661 0.010830
vt 0.551082 0.191251
vt 0.551082 0.371672
vt 0.045357 0.063399
vt 0.011603 0.045357
vt 0.029645 0.011604
vt 0.010308 0.561256
vt 0.064434 0.555950
vt 0.064434 0.561256
vt 0.010308 0.396791
vt 0.064434 0.391486
vt 0.064434 0.396791
vt 0.010308 0.402096
vt 0.064434 0.402096
vt 0.080700 0.069590
vt 0.117325 0.080700
vt 0.106215 0.117325
vt 0.010308 0.407402
vt 0.064434 0.407402
vt 0.010308 0.412707
vt 0.064434 0.412707
vt 0.010308 0.418012
vt 0.064434 0.418012
vt 0.010308 0.423318
vt 0.064434 0.423318
vt 0.010308 0.428623
vt 0.064434 0.428623
vt 0.010308 0.433928
vt 0.064434 0.433928
vt 0.010308 0.439234
vt 0.064434 0.439234
vt 0.010308 0.444539
vt 0.064434 0.444539
vt 0.010308 0.449844
vt 0.064434 0.449844
vt 0.010308 0.455149
vt 0.064434 0.455149
vt 0.010308 0.460455
vt 0.064434 0.460455
vt 0.010308 0.465760
vt 0.064434 0.465760
vt 0.010308 0.471065
vt 0.064434 0.471065
vt 0.010308 0.476371
vt 0.064434 0.476371
vt 0.064434 0.481676
vt 0.010308 0.486981
vt 0.064434 0.486981
vt 0.010308 0.492287
vt 0.064434 0.492287
vt 0.010308 0.497592
vt 0.064434 0.497592
vt 0.010308 0.502897
vt 0.064434 0.502897
vt 0.010308 0.508203
vt 0.064434 0.508203
vt 0.010308 0.513508
vt 0.064434 0.513508
vt 0.010308 0.518813
vt 0.064434 0.518813
vt 0.010308 0.524119
vt 0.064434 0.524119
vt 0.010308 0.529424
vt 0.064434 0.529424
vt 0.010308 0.534729
vt 0.064434 0.534729
vt 0.010308 0.540034
vt 0.064434 0.540034
vt 0.010308 0.545340
vt 0.064434 0.545340
vt 0.010308 0.550645
vt 0.064434 0.550645
vt 0.010308 0.555950
vt 0.394400 0.863957
vt 0.340273 0.936126
vt 0.340273 0.863957
vt 0.394400 0.737662
vt 0.520694 0.809831
vt 0.394400 0.809831
vt 0.520694 0.936126
vt 0.394400 0.990252
vt 0.394400 0.936126
vt 0.520694 0.863957
vt 0.574821 0.863957
vt 0.847952 0.898688
vt 0.902079 0.844561
vt 0.821314 0.123916
vt 0.842572 0.145174
vt 0.859274 0.170171
vt 0.870779 0.197946
vt 0.876644 0.227432
vt 0.876644 0.257495
vt 0.870779 0.286981
vt 0.859274 0.314756
vt 0.842572 0.339753
vt 0.821314 0.361011
vt 0.796317 0.377713
vt 0.768542 0.389218
vt 0.739056 0.395083
vt 0.708993 0.395083
vt 0.679507 0.389218
vt 0.626735 0.361011
vt 0.605477 0.339753
vt 0.588775 0.314756
vt 0.577270 0.286981
vt 0.571405 0.257495
vt 0.571405 0.227432
vt 0.577270 0.197946
vt 0.605477 0.145174
vt 0.626735 0.123916
vt 0.651732 0.107214
vt 0.679507 0.095709
vt 0.708993 0.089844
vt 0.739056 0.089844
vt 0.768542 0.095709
vt 0.009818 0.191251
vt 0.190239 0.010830
vt 0.034849 0.010568
vt 0.040154 0.010568
vt 0.045357 0.011603
vt 0.050259 0.013634
vt 0.054670 0.016581
vt 0.058421 0.020333
vt 0.061369 0.024744
vt 0.063399 0.029645
vt 0.064434 0.034849
vt 0.064434 0.040154
vt 0.063399 0.045357
vt 0.061369 0.050259
vt 0.058421 0.054670
vt 0.054670 0.058421
vt 0.050259 0.061369
vt 0.040154 0.064434
vt 0.034849 0.064434
vt 0.029645 0.063399
vt 0.024744 0.061369
vt 0.020333 0.058421
vt 0.016581 0.054670
vt 0.013634 0.050259
vt 0.010568 0.040154
vt 0.010568 0.034849
vt 0.011603 0.029645
vt 0.013634 0.024744
vt 0.016581 0.020333
vt 0.020333 0.016581
vt 0.024744 0.013634
vt 0.010308 0.391486
vt 0.101313 0.119355
vt 0.096110 0.120390
vt 0.090805 0.120390
vt 0.085601 0.119355
vt 0.080700 0.117325
vt 0.076289 0.114377
vt 0.072537 0.110626
vt 0.069590 0.106215
vt 0.067559 0.101313
vt 0.066524 0.096110
vt 0.066524 0.090805
vt 0.067559 0.085601
vt 0.069590 0.080700
vt 0.072537 0.076289
vt 0.076289 0.072537
vt 0.085601 0.067559
vt 0.090805 0.066524
vt 0.096110 0.066524
vt 0.101313 0.067559
vt 0.106215 0.069590
vt 0.110626 0.072537
vt 0.114377 0.076289
vt 0.119355 0.085601
vt 0.120390 0.090805
vt 0.120390 0.096110
vt 0.119355 0.101313
vt 0.117325 0.106215
vt 0.114377 0.110626
vt 0.110626 0.114377
vt 0.010308 0.481676
vt 0.520694 0.737662
vt 0.520694 0.990252
vt 0.574821 0.936126
s 0
usemtl Material
f 5/1/1 1/2/1 2/3/1
f 3/4/2 2/5/2 1/6/2
f 6/7/3 1/8/3 4/9/3
f 5/1/4 6/7/4 4/9/4
f 8/10/5 6/7/5 7/11/5
f 8/12/6 5/1/6 2/5/6
f 9/13/7 41/14/7 10/15/7
f 10/15/8 41/14/8 11/16/8
f 11/16/9 41/14/9 12/17/9
f 12/17/10 41/14/10 13/18/10
f 13/18/11 41/14/11 14/19/11
f 14/19/12 41/14/12 15/20/12
f 15/20/13 41/14/13 16/21/13
f 16/21/14 41/14/14 17/22/14
f 17/22/15 41/14/15 18/23/15
f 18/23/16 41/14/16 19/24/16
f 19/24/17 41/14/17 20/25/17
f 20/25/18 41/14/18 21/26/18
f 21/26/19 41/14/19 22/27/19
f 22/27/20 41/14/20 23/28/20
f 23/28/21 41/14/21 24/29/21
f 24/29/22 41/14/22 25/30/22
f 25/30/23 41/14/23 26/31/23
f 26/31/24 41/14/24 27/32/24
f 27/32/25 41/14/25 28/33/25
f 28/33/26 41/14/26 29/34/26
f 29/34/27 41/14/27 30/35/27
f 30/35/28 41/14/28 31/36/28
f 31/36/29 41/14/29 32/37/29
f 32/37/30 41/14/30 33/38/30
f 33/38/31 41/14/31 34/39/31
f 34/39/32 41/14/32 35/40/32
f 35/40/33 41/14/33 36/41/33
f 36/41/34 41/14/34 37/42/34
f 37/42/35 41/14/35 38/43/35
f 38/43/36 41/14/36 39/44/36
f 24/45/37 32/46/37 40/47/37
f 39/44/38 41/14/38 40/48/38
f 40/48/39 41/14/39 9/13/39
f 45/49/40 43/50/40 46/51/40
f 42/52/4 49/53/4 43/50/4
f 45/54/41 44/55/41 42/52/41
f 47/56/2 46/51/2 48/57/2
f 44/55/42 48/58/42 49/53/42
f 43/50/37 48/59/37 46/60/37
f 85/61/2 69/62/2 53/63/2
f 52/64/43 51/65/43 50/66/43
f 55/67/44 50/68/44 53/69/44
f 56/70/45 53/69/45 54/71/45
f 80/72/4 96/73/4 112/74/4
f 57/75/46 54/71/46 59/76/46
f 58/77/47 59/76/47 60/78/47
f 63/79/48 60/78/48 61/80/48
f 64/81/49 61/80/49 62/82/49
f 65/83/50 62/82/50 67/84/50
f 66/85/51 67/84/51 68/86/51
f 71/87/52 68/86/52 69/88/52
f 72/89/53 69/88/53 70/90/53
f 73/91/54 70/90/54 75/92/54
f 74/93/55 75/92/55 76/94/55
f 79/95/56 76/94/56 77/96/56
f 80/97/57 77/96/57 78/98/57
f 81/99/58 78/98/58 83/100/58
f 82/101/59 83/100/59 84/102/59
f 85/103/60 82/101/60 84/102/60
f 88/104/61 85/103/61 86/105/61
f 89/106/62 86/105/62 91/107/62
f 90/108/63 91/107/63 92/109/63
f 95/110/64 92/109/64 93/111/64
f 96/112/65 93/111/65 94/113/65
f 97/114/66 94/113/66 99/115/66
f 98/116/67 99/115/67 100/117/67
f 103/118/68 100/117/68 101/119/68
f 104/120/69 101/119/69 102/121/69
f 105/122/70 102/121/70 107/123/70
f 106/124/71 107/123/71 108/125/71
f 111/126/72 108/125/72 109/127/72
f 112/128/73 109/127/73 110/129/73
f 113/130/74 110/129/74 51/65/74
f 118/131/75 114/132/75 115/133/75
f 114/134/2 121/135/2 115/136/2
f 119/137/76 114/138/76 117/139/76
f 120/140/4 117/139/4 118/131/4
f 121/141/77 119/137/77 120/140/77
f 121/135/78 118/131/78 115/136/78
f 5/1/1 4/9/1 1/2/1
f 3/4/2 8/12/2 2/5/2
f 6/7/3 3/142/3 1/8/3
f 5/1/4 7/11/4 6/7/4
f 8/10/5 3/143/5 6/7/5
f 8/12/6 7/11/6 5/1/6
f 40/47/37 9/144/37 10/145/37
f 10/145/37 11/146/37 12/147/37
f 12/147/37 13/148/37 14/149/37
f 14/149/37 15/150/37 16/151/37
f 16/151/37 17/152/37 18/153/37
f 18/153/37 19/154/37 20/155/37
f 20/155/37 21/156/37 22/157/37
f 22/157/37 23/158/37 24/45/37
f 24/45/37 25/159/37 26/160/37
f 26/160/37 27/161/37 28/162/37
f 28/162/37 29/163/37 30/164/37
f 30/164/37 31/165/37 32/46/37
f 32/46/37 33/166/37 34/167/37
f 34/167/37 35/168/37 36/169/37
f 36/169/37 37/170/37 38/171/37
f 38/171/37 39/172/37 40/47/37
f 40/47/37 10/145/37 12/147/37
f 12/147/37 14/149/37 16/151/37
f 16/151/37 18/153/37 20/155/37
f 20/155/37 22/157/37 24/45/37
f 24/45/37 26/160/37 28/162/37
f 28/162/37 30/164/37 32/46/37
f 32/46/37 34/167/37 36/169/37
f 36/169/37 38/171/37 40/47/37
f 40/47/37 12/147/37 16/151/37
f 16/151/37 20/155/37 24/45/37
f 24/45/37 28/162/37 32/46/37
f 32/46/37 36/169/37 40/47/37
f 40/47/37 16/151/37 24/45/37
f 45/49/40 42/52/40 43/50/40
f 42/52/4 44/55/4 49/53/4
f 45/54/41 47/173/41 44/55/41
f 47/56/2 45/49/2 46/51/2
f 44/55/42 47/174/42 48/58/42
f 43/50/37 49/53/37 48/59/37
f 53/63/2 50/175/2 51/176/2
f 51/176/2 110/177/2 109/178/2
f 109/178/2 108/179/2 107/180/2
f 107/180/2 102/181/2 101/182/2
f 101/182/2 100/183/2 99/184/2
f 99/184/2 94/185/2 93/186/2
f 93/186/2 92/187/2 91/188/2
f 91/188/2 86/189/2 85/61/2
f 85/61/2 84/190/2 83/191/2
f 83/191/2 78/192/2 77/193/2
f 77/193/2 76/194/2 75/195/2
f 75/195/2 70/196/2 69/62/2
f 69/62/2 68/197/2 67/198/2
f 67/198/2 62/199/2 61/200/2
f 61/200/2 60/201/2 59/202/2
f 59/202/2 54/203/2 53/63/2
f 53/63/2 51/176/2 109/178/2
f 109/178/2 107/180/2 101/182/2
f 101/182/2 99/184/2 93/186/2
f 93/186/2 91/188/2 85/61/2
f 85/61/2 83/191/2 77/193/2
f 77/193/2 75/195/2 69/62/2
f 69/62/2 67/198/2 61/200/2
f 61/200/2 59/202/2 53/63/2
f 53/63/2 109/178/2 101/182/2
f 101/182/2 93/186/2 85/61/2
f 85/61/2 77/193/2 69/62/2
f 69/62/2 61/200/2 53/63/2
f 53/63/2 101/182/2 85/61/2
f 52/64/43 113/130/43 51/65/43
f 55/67/44 52/204/44 50/68/44
f 56/70/45 55/67/45 53/69/45
f 112/74/4 113/205/4 52/206/4
f 52/206/4 55/207/4 56/208/4
f 56/208/4 57/209/4 58/210/4
f 58/210/4 63/211/4 64/212/4
f 64/212/4 65/213/4 66/214/4
f 66/214/4 71/215/4 72/216/4
f 72/216/4 73/217/4 74/218/4
f 74/218/4 79/219/4 80/72/4
f 80/72/4 81/220/4 82/221/4
f 82/221/4 87/222/4 88/223/4
f 88/223/4 89/224/4 90/225/4
f 90/225/4 95/226/4 96/73/4
f 96/73/4 97/227/4 98/228/4
f 98/228/4 103/229/4 104/230/4
f 104/230/4 105/231/4 106/232/4
f 106/232/4 111/233/4 112/74/4
f 112/74/4 52/206/4 56/208/4
f 56/208/4 58/210/4 64/212/4
f 64/212/4 66/214/4 72/216/4
f 72/216/4 74/218/4 80/72/4
f 80/72/4 82/221/4 88/223/4
f 88/223/4 90/225/4 96/73/4
f 96/73/4 98/228/4 104/230/4
f 104/230/4 106/232/4 112/74/4
f 112/74/4 56/208/4 64/212/4
f 64/212/4 72/216/4 80/72/4
f 80/72/4 88/223/4 96/73/4
f 96/73/4 104/230/4 112/74/4
f 112/74/4 64/212/4 80/72/4
f 57/75/46 56/70/46 54/71/46
f 58/77/47 57/75/47 59/76/47
f 63/79/48 58/77/48 60/78/48
f 64/81/49 63/79/49 61/80/49
f 65/83/50 64/81/50 62/82/50
f 66/85/51 65/83/51 67/84/51
f 71/87/52 66/85/52 68/86/52
f 72/89/53 71/87/53 69/88/53
f 73/91/54 72/89/54 70/90/54
f 74/93/55 73/91/55 75/92/55
f 79/95/56 74/93/56 76/94/56
f 80/97/57 79/95/57 77/96/57
f 81/99/58 80/97/58 78/98/58
f 82/101/59 81/99/59 83/100/59
f 85/103/60 87/234/60 82/101/60
f 88/104/61 87/234/61 85/103/61
f 89/106/62 88/104/62 86/105/62
f 90/108/63 89/106/63 91/107/63
f 95/110/64 90/108/64 92/109/64
f 96/112/65 95/110/65 93/111/65
f 97/114/66 96/112/66 94/113/66
f 98/116/67 97/114/67 99/115/67
f 103/118/68 98/116/68 100/117/68
f 104/120/69 103/118/69 101/119/69
f 105/122/70 104/120/70 102/121/70
f 106/124/71 105/122/71 107/123/71
f 111/126/72 106/124/72 108/125/72
f 112/128/73 111/126/73 109/127/73
f 113/130/74 112/128/74 110/129/74
f 118/131/75 117/139/75 114/132/75
f 114/134/2 116/235/2 121/135/2
f 119/137/76 116/236/76 114/138/76
f 120/140/4 119/137/4 117/139/4
f 121/141/77 116/237/77 119/137/77
f 121/135/78 120/140/78 118/131/78
